<svg id="arrow-left-circle" xmlns="http://www.w3.org/2000/svg" width="15.86" height="15.86" viewBox="0 0 15.86 15.86">
  <path id="Path_131" data-name="Path 131" d="M7.93,14.869A6.939,6.939,0,1,1,14.869,7.93,6.939,6.939,0,0,1,7.93,14.869Zm0,.991a7.93,7.93,0,1,1,7.93-7.93A7.93,7.93,0,0,1,7.93,15.86Z" fill="#fc9982" fill-rule="evenodd"/>
  <path id="Path_132" data-name="Path 132" d="M10.269,16.918a.5.5,0,0,1,0-.7l2.623-2.623L10.269,10.97a.5.5,0,0,1,.7-.7l2.974,2.974a.5.5,0,0,1,0,.7l-2.974,2.974a.5.5,0,0,1-.7,0Z" transform="translate(-2.69 -5.663)" fill="#fc9982" fill-rule="evenodd"/>
  <path id="Path_133" data-name="Path 133" d="M12.375,17.371a.5.5,0,0,1,.5-.5h4.956a.5.5,0,0,1,0,.991H12.871A.5.5,0,0,1,12.375,17.371Z" transform="translate(-7.914 -9.441)" fill="#fc9982" fill-rule="evenodd"/>
</svg>
