<svg xmlns="http://www.w3.org/2000/svg" width="31" height="31" viewBox="0 0 31 31">
  <g id="Group_5" data-name="Group 5" transform="translate(-34 -580)">
    <circle id="Ellipse_10" data-name="Ellipse 10" cx="15.5" cy="15.5" r="15.5" transform="translate(34 580)" fill="#fc9982"/>
    <g id="stethoscope" transform="translate(42 587.993)">
      <path id="Path_130" data-name="Path 130" d="M14.256,1.317A1.842,1.842,0,0,0,12.773.579h-.249V.436a.429.429,0,1,0-.857,0V1.579a.429.429,0,1,0,.857,0V1.436h.249a1,1,0,0,1,.962,1.275L12.6,6.693a2.6,2.6,0,0,1-5,0L6.455,2.711a1,1,0,0,1,.962-1.275h.249v.143a.429.429,0,0,0,.857,0V.436a.429.429,0,0,0-.857,0V.579H7.417A1.857,1.857,0,0,0,5.631,2.946L6.769,6.928A3.433,3.433,0,0,0,8.012,8.74a3.505,3.505,0,0,0,.4.263l1.25,2.951v.309a1.518,1.518,0,1,1-3.036,0V9.323a2.458,2.458,0,0,0-4.915,0v1.015a2.143,2.143,0,1,0,.857,0V9.323a1.6,1.6,0,0,1,3.2,0v2.94a2.376,2.376,0,0,0,4.751,0v-.309L11.774,9a3.5,3.5,0,0,0,.4-.263,3.433,3.433,0,0,0,1.243-1.812l1.138-3.982a1.842,1.842,0,0,0-.3-1.629ZM3.429,12.438a1.286,1.286,0,1,1-1.286-1.286A1.287,1.287,0,0,1,3.429,12.438Zm6.666-1.67-.584-1.38a3.492,3.492,0,0,0,1.169,0Z" fill="#fff"/>
      <circle id="Ellipse_11" data-name="Ellipse 11" cx="0.397" cy="0.397" r="0.397" transform="translate(1.978 12.304)" fill="#fff"/>
    </g>
  </g>
</svg>
