<svg xmlns="http://www.w3.org/2000/svg" width="112.864" height="78.561" viewBox="0 0 112.864 78.561">
  <g id="Group_10" data-name="Group 10" transform="translate(0 0)">
    <path id="Path_146" data-name="Path 146" d="M830.94,153.027l-8.707.085c-.409-2.015-1.784-7.3-.546-8.743a2.119,2.119,0,0,1,2.232-1.9h0c1.349-2.112,3.6-1.8,5.116-.476,1.529.528,2.105,1.465,1.9,2.737a2.975,2.975,0,0,1,.833,3.57Z" transform="translate(-736.638 -140.947)" fill="#2f2e41"/>
    <path id="Path_147" data-name="Path 147" d="M839.593,225.092l-6.282-.87-1.256-1.836a3.778,3.778,0,0,0,1.546-4.929l4.349-.1a3.969,3.969,0,0,0,2.223,4.349Z" transform="translate(-746.129 -207.649)" fill="#ffb9b9"/>
    <path id="Path_148" data-name="Path 148" d="M828.586,723.245l-.24,3.284a1.045,1.045,0,0,0,1.106,1.12l1.687-.1a.533.533,0,0,0,.485-.661l-.936-3.745Z" transform="translate(-742.889 -649.143)" fill="#e6e6e6"/>
    <path id="Path_149" data-name="Path 149" d="M866.677,723.14l-.936,3.745a.533.533,0,0,0,.485.661l1.687.1a1.045,1.045,0,0,0,1.106-1.12l-.24-3.284Z" transform="translate(-775.52 -649.143)" fill="#e6e6e6"/>
    <path id="Path_150" data-name="Path 150" d="M656.284,354.309l-2.276-.228-2.266-24.221L650.886,354l-2.236-.08-3.769-33.437h14.4Z" transform="translate(-562.917 -279.751)" fill="#075cc9"/>
    <circle id="Ellipse_12" data-name="Ellipse 12" cx="4.349" cy="4.349" r="4.349" transform="translate(85.539 2.658)" fill="#ffb9b9"/>
    <path id="Path_151" data-name="Path 151" d="M810.105,277.7l-17.588.193c2.61-9.937,4.172-19.167,1.45-25.513l4.349-2.126c2.1,2.187,4.432,1.962,6.958-.193l4.156,1.063A134.491,134.491,0,0,0,810.105,277.7Z" transform="translate(-711.616 -236.188)" fill="#075cc9"/>
    <path id="Path_152" data-name="Path 152" d="M754.5,333.822l10.92,4.349,2.441.718a.845.845,0,0,0,1.058-.605h0a.845.845,0,0,0-.481-.979l-2.535-.777-7.635-4.445,1.594-4.2-3.334-1.788Z" transform="translate(-678.431 -302.559)" fill="#ffb9b9"/>
    <path id="Path_153" data-name="Path 153" d="M755.26,275.456a10.846,10.846,0,0,1,5.025,4.059l4.059-5.9-2.9-5.315Z" transform="translate(-679.095 -252.117)" fill="#075cc9"/>
    <path id="Path_154" data-name="Path 154" d="M840.067,161.438a8.881,8.881,0,0,0-5.187.06,5.206,5.206,0,0,1-3.8.044V157.2l7.748.207Z" transform="translate(-745.278 -155.137)" fill="#2f2e41"/>
    <path id="Path_155" data-name="Path 155" d="M831.288,347.053A1.289,1.289,0,0,0,830,348.341l.508,10.642a1.289,1.289,0,0,0,1.288,1.288h5.813a1.289,1.289,0,0,0,1.288-1.288l.508-10.642a1.289,1.289,0,0,0-1.288-1.288Z" transform="translate(-744.335 -320.857)" fill="#3f3d56"/>
    <path id="Path_156" data-name="Path 156" d="M874.481,328.325l-9.518,3.79-.718.286-.07.024-2.406.708c-.308.09-.733-.324-.982-.61a.773.773,0,0,1-.02-1.008.856.856,0,0,1,.109-.106.711.711,0,0,1,.318-.14l2.4-.473a.8.8,0,0,0,.245-.091l1.121-.653,5.82-3.388a.791.791,0,0,0,.342-.963l-1.111-2.93a.789.789,0,0,1,.365-.976l1.84-.986a.789.789,0,0,1,1.136.5l1.6,6.085A.79.79,0,0,1,874.481,328.325Z" transform="translate(-771.037 -297.866)" fill="#ffb9b9"/>
    <path id="Path_157" data-name="Path 157" d="M911.852,265.764a10.846,10.846,0,0,0-5.025,4.059l-4.059-5.895,2.9-5.508Z" transform="translate(-807.854 -243.489)" fill="#075cc9"/>
    <path id="Path_158" data-name="Path 158" d="M839.736,205.164a7.959,7.959,0,0,1-5.974,0c.6-1.031-.3-1.839-.763-2.88l7.753-.23C840.16,202.958,839.285,204.026,839.736,205.164Z" transform="translate(-746.954 -194.287)" fill="#fff"/>
    <path id="Path_159" data-name="Path 159" d="M736.736,54.884l-.09-.09.127-.127.759-.886.1.083-.763.89Z" transform="translate(-643.019 -46.945)" fill="#fff"/>
    <rect id="Rectangle_43" data-name="Rectangle 43" width="0.127" height="0.993" transform="translate(85.433 7.498) rotate(-50.195)" fill="#fff"/>
    <rect id="Rectangle_44" data-name="Rectangle 44" width="2.486" height="0.127" transform="matrix(0.537, -0.844, 0.844, 0.537, 92.601, 10.783)" fill="#fff"/>
    <rect id="Rectangle_45" data-name="Rectangle 45" width="0.127" height="2.486" transform="translate(85.548 8.754) rotate(-32.471)" fill="#fff"/>
    <path id="Path_160" data-name="Path 160" d="M863.471,392.768v2.3l-.8.319c-.026.01-.051.018-.078.027l-2.686.79c-.343.1-.819-.362-1.1-.681a.863.863,0,0,1-.023-1.125.95.95,0,0,1,.122-.118.794.794,0,0,1,.355-.156l2.683-.528a.9.9,0,0,0,.274-.1Z" transform="translate(-769.291 -360.761)" fill="#fff"/>
    <path id="Path_161" data-name="Path 161" d="M884.059,249.289H883.6c0-6.5-1.338-11.023-2.641-11.023l-.115-.459c1.169,0,1.914,1.884,2.333,3.465A32.707,32.707,0,0,1,884.059,249.289Z" transform="translate(-788.717 -225.495)" fill="#3f3d56"/>
    <path id="Path_162" data-name="Path 162" d="M819.87,249.259h-.459c0-5.949,1.347-9.645,3.33-9.645l-.115.459C821.254,240.073,819.87,242.913,819.87,249.259Z" transform="translate(-735.092 -227.073)" fill="#3f3d56"/>
    <circle id="Ellipse_13" data-name="Ellipse 13" cx="1.148" cy="1.148" r="1.148" transform="translate(93.964 22.76)" fill="#3f3d56"/>
    <path id="Path_163" data-name="Path 163" d="M805.416,316.679h-.459c0-1.646.927-2.985,2.067-2.985v.459C806.137,314.153,805.416,315.287,805.416,316.679Z" transform="translate(-722.474 -291.738)" fill="#3f3d56"/>
    <path id="Path_164" data-name="Path 164" d="M823.284,316.679h-.459c0-1.393-.721-2.526-1.608-2.526v-.459C822.357,313.694,823.284,315.033,823.284,316.679Z" transform="translate(-736.669 -291.738)" fill="#3f3d56"/>
    <circle id="Ellipse_14" data-name="Ellipse 14" cx="0.459" cy="0.459" r="0.459" transform="translate(85.927 24.597)" fill="#3f3d56"/>
    <circle id="Ellipse_15" data-name="Ellipse 15" cx="0.459" cy="0.459" r="0.459" transform="translate(82.252 24.597)" fill="#3f3d56"/>
    <path id="Path_165" data-name="Path 165" d="M301.856,154.152l-8.066,1.366a.816.816,0,0,1-.924-.586c-.583-2.1-1.8-4.847-.618-6.225a2.263,2.263,0,0,1,2.384-2.025h0c1.441-2.256,3.841-1.917,5.463-.508,1.633.563,2.248,1.564,2.033,2.922a3.143,3.143,0,0,1,1.153,2.076,3,3,0,0,1-.82,2.332Z" transform="translate(-274.495 -144.531)" fill="#2f2e41"/>
    <path id="Path_166" data-name="Path 166" d="M318.456,236.293l-6.253-.368a6.872,6.872,0,0,0,.613-4.046h4.659A19.752,19.752,0,0,0,318.456,236.293Z" transform="translate(-292.349 -220.322)" fill="#9f616a"/>
    <path id="Path_167" data-name="Path 167" d="M300.4,720.465l-.256,3.506a1.116,1.116,0,0,0,1.181,1.2l1.8-.109a.569.569,0,0,0,.518-.706l-1-4Z" transform="translate(-281.819 -646.711)" fill="#e6e6e6"/>
    <path id="Path_168" data-name="Path 168" d="M341.072,720.353l-1,4a.569.569,0,0,0,.518.706l1.8.109a1.116,1.116,0,0,0,1.181-1.2l-.257-3.506Z" transform="translate(-316.662 -646.711)" fill="#e6e6e6"/>
    <path id="Path_169" data-name="Path 169" d="M126.99,336.062l-2.43-.244-2.42-25.865-.914,25.781-2.388-.086-4.025-35.706h15.376Z" transform="translate(-100.22 -261.821)" fill="#075cc9"/>
    <circle id="Ellipse_16" data-name="Ellipse 16" cx="4.644" cy="4.644" r="4.644" transform="translate(18.275 3.759)" fill="#9f616a"/>
    <path id="Path_170" data-name="Path 170" d="M311.59,168.6a13.864,13.864,0,0,0-5.539.043,8.069,8.069,0,0,1-4.058.032v-3.132l8.273.149Z" transform="translate(-283.437 -162.421)" fill="#2f2e41"/>
    <path id="Path_171" data-name="Path 171" d="M311.237,213.559a8.5,8.5,0,0,1-6.379,0c.645-1.1-.319-1.964-.814-3.075l8.279-.246C311.689,211.2,310.755,212.344,311.237,213.559Z" transform="translate(-285.227 -201.43)" fill="#fff"/>
    <rect id="Rectangle_46" data-name="Rectangle 46" width="0.127" height="1.06" transform="translate(18.165 8.516) rotate(-50.195)" fill="#fff"/>
    <rect id="Rectangle_47" data-name="Rectangle 47" width="2.654" height="0.127" transform="matrix(0.537, -0.844, 0.844, 0.537, 25.82, 12.03)" fill="#fff"/>
    <rect id="Rectangle_48" data-name="Rectangle 48" width="0.127" height="2.654" transform="translate(18.287 9.859) rotate(-32.471)" fill="#fff"/>
    <path id="Path_172" data-name="Path 172" d="M242.44,278.536l-3.556-2.207,3.032-8.882a4.19,4.19,0,0,1,1.831-2.175l1.022-.591.089,8.96Z" transform="translate(-228.35 -248.953)" fill="#075cc9"/>
    <path id="Path_173" data-name="Path 173" d="M277.4,269.376l-.526-4.506a15.808,15.808,0,0,1,1.341-6.8l.49-6.621-5.4-2.207c-.017.11-.031.22-.046.33l-2.529,1.264-2.466-.56.014-.788-4.9,2.207c1.622,7.541.737,15.371-2.052,24.62l6.461,1.767.054-3.1,5.758-.411c.059,1.007.107,2,.135,2.962,3.249,1.2,3.361,1.176,6.321-.536A34.739,34.739,0,0,1,277.4,269.376Z" transform="translate(-247.942 -235.48)" fill="#075cc9"/>
    <path id="Path_174" data-name="Path 174" d="M237.946,138.17l-3.311-1.1-5.3-6.165,1.617-5.238,7.357,10.3Z" transform="translate(-200.191 -109.691)" fill="#075cc9"/>
    <path id="Path_175" data-name="Path 175" d="M371.262,390.635a.921.921,0,0,0,1.1.694l2.81-.636-.406-1.794-2.81.636A.92.92,0,0,0,371.262,390.635Z" transform="translate(-343.882 -357.384)" fill="#e6e6e6"/>
    <path id="Path_176" data-name="Path 176" d="M391.309,352.55l1.594,2.943c2.681-.748,5-3.105,7.234-5.886l-.613-1.962-3.8.981Z" transform="translate(-361.401 -321.374)" fill="#075cc9"/>
    <path id="Path_177" data-name="Path 177" d="M71.79,172.661l3.06.546,6.994,9.945-3.716-.874Z" transform="translate(-62.666 -150.716)" fill="#e6e6e6"/>
    <path id="Path_178" data-name="Path 178" d="M221.759,312.65a.26.26,0,0,0-.214.4l6.538,9.92a.26.26,0,0,0,.157.11l3.042.716a.26.26,0,0,0,.272-.4l-7.178-10.206a.258.258,0,0,0-.167-.106l-2.4-.429A.284.284,0,0,0,221.759,312.65Z" transform="translate(-213.178 -290.826)" fill="#3f3d56"/>
    <path id="Path_179" data-name="Path 179" d="M255.608,366.466l.182,1.83,2.867-.285a.92.92,0,0,0-.182-1.83Z" transform="translate(-242.948 -337.55)" fill="#e6e6e6"/>
    <path id="Path_180" data-name="Path 180" d="M235.991,356.248a2.365,2.365,0,0,0,2.362,2.349h.471l.343-2.86-2.842-1.023Z" transform="translate(-225.824 -327.544)" fill="#075cc9"/>
    <path id="Path_181" data-name="Path 181" d="M210.782,63.73l-.09-.09.136-.136.811-.947.1.083-.814.95Z" transform="translate(-183.913 -54.607)" fill="#fff"/>
    <rect id="Rectangle_49" data-name="Rectangle 49" width="112.864" height="0.254" transform="translate(0 78.307)" fill="#3f3d56"/>
    <path id="Path_182" data-name="Path 182" d="M495,512.36h26.691V479.985c0-1.714-1.689-3.109-3.764-3.109H498.764c-2.075,0-3.764,1.395-3.764,3.109Z" transform="translate(-451.913 -434.18)" fill="#e6e6e6"/>
    <path id="Path_183" data-name="Path 183" d="M511,538.96h22.624V511.519a2.956,2.956,0,0,0-3.19-2.635H514.19a2.956,2.956,0,0,0-3.19,2.635Z" transform="translate(-465.88 -462.119)" fill="#fff"/>
    <path id="Path_184" data-name="Path 184" d="M485.2,457.053a1.109,1.109,0,0,0-1.2.988v2.853a1.109,1.109,0,0,0,1.2.988h27.094a1.109,1.109,0,0,0,1.2-.988v-2.853a1.109,1.109,0,0,0-1.2-.988Z" transform="translate(-442.312 -416.876)" fill="#3f3d56"/>
    <path id="Path_185" data-name="Path 185" d="M529.153,717.836A1.172,1.172,0,0,0,527.984,719h0a1.172,1.172,0,0,0,1.169,1.169h2.188v-2.338Z" transform="translate(-480.706 -644.513)" fill="#3f3d56"/>
    <path id="Path_186" data-name="Path 186" d="M555.58,717.836h-2.128v2.338h2.128A1.172,1.172,0,0,0,556.749,719h0A1.172,1.172,0,0,0,555.58,717.836Z" transform="translate(-502.936 -644.513)" fill="#075cc9"/>
    <path id="Path_187" data-name="Path 187" d="M556.343,720.088a1.162,1.162,0,0,1,.286.763h0a1.172,1.172,0,0,1-1.169,1.169h-2.008v.12h2.128a1.172,1.172,0,0,0,1.169-1.169h0a1.166,1.166,0,0,0-.406-.883Z" transform="translate(-502.936 -646.479)" opacity="0.2"/>
    <path id="Path_188" data-name="Path 188" d="M601,576.8a1.172,1.172,0,0,0-1.652-.049h0a1.172,1.172,0,0,0-.049,1.652l1.5,1.592,1.7-1.6Z" transform="translate(-542.68 -521.082)" fill="#3f3d56"/>
    <path id="Path_189" data-name="Path 189" d="M615.8,592.7l-1.46-1.548-1.7,1.6,1.46,1.548a1.172,1.172,0,0,0,1.652.049h0a1.172,1.172,0,0,0,.049-1.652Z" transform="translate(-554.6 -533.928)" fill="#075cc9"/>
    <path id="Path_190" data-name="Path 190" d="M616.113,603.9a1.163,1.163,0,0,1-.359.732h0a1.172,1.172,0,0,1-1.652-.049l-1.377-1.461-.087.082,1.46,1.548a1.172,1.172,0,0,0,1.652.049h0A1.166,1.166,0,0,0,616.113,603.9Z" transform="translate(-554.599 -544.377)" opacity="0.2"/>
    <path id="Path_191" data-name="Path 191" d="M552,605.8a1.172,1.172,0,0,0-1.652-.049h0a1.172,1.172,0,0,0-.049,1.652l1.5,1.592,1.7-1.6Z" transform="translate(-499.908 -546.397)" fill="#3f3d56"/>
    <path id="Path_192" data-name="Path 192" d="M566.8,621.7l-1.46-1.548-1.7,1.6,1.46,1.548a1.172,1.172,0,0,0,1.652.049h0A1.172,1.172,0,0,0,566.8,621.7Z" transform="translate(-511.828 -559.242)" fill="#075cc9"/>
    <path id="Path_193" data-name="Path 193" d="M567.113,632.9a1.163,1.163,0,0,1-.359.732h0a1.172,1.172,0,0,1-1.652-.049l-1.377-1.461-.087.082,1.46,1.548a1.172,1.172,0,0,0,1.652.049h0A1.166,1.166,0,0,0,567.113,632.9Z" transform="translate(-511.827 -569.691)" opacity="0.2"/>
    <path id="Path_194" data-name="Path 194" d="M601,632.8a1.172,1.172,0,0,0-1.652-.049h0a1.172,1.172,0,0,0-.049,1.652l1.5,1.592,1.7-1.6Z" transform="translate(-542.68 -569.965)" fill="#3f3d56"/>
    <path id="Path_195" data-name="Path 195" d="M615.8,648.7l-1.46-1.548-1.7,1.6,1.46,1.548a1.172,1.172,0,0,0,1.652.049h0A1.172,1.172,0,0,0,615.8,648.7Z" transform="translate(-554.6 -582.811)" fill="#075cc9"/>
    <path id="Path_196" data-name="Path 196" d="M616.113,659.9a1.163,1.163,0,0,1-.359.732h0a1.172,1.172,0,0,1-1.652-.049l-1.377-1.461-.087.082,1.46,1.548a1.172,1.172,0,0,0,1.652.049h0A1.166,1.166,0,0,0,616.113,659.9Z" transform="translate(-554.599 -593.259)" opacity="0.2"/>
    <path id="Path_197" data-name="Path 197" d="M622.792,678.985a1.173,1.173,0,0,0,.029-1.653h0a1.172,1.172,0,0,0-1.653-.029l-1.574,1.52,1.624,1.682Z" transform="translate(-560.672 -608.847)" fill="#3f3d56"/>
    <path id="Path_198" data-name="Path 198" d="M607.413,694.011l1.531-1.478-1.624-1.682-1.531,1.478a1.172,1.172,0,0,0-.029,1.653h0A1.172,1.172,0,0,0,607.413,694.011Z" transform="translate(-548.311 -620.958)" fill="#075cc9"/>
    <path id="Path_199" data-name="Path 199" d="M606.665,694.334a1.162,1.162,0,0,1-.736-.35h0a1.172,1.172,0,0,1,.029-1.653l1.444-1.4-.083-.086-1.531,1.478a1.172,1.172,0,0,0-.029,1.653h0A1.166,1.166,0,0,0,606.665,694.334Z" transform="translate(-548.311 -620.958)" opacity="0.2"/>
    <path id="Path_200" data-name="Path 200" d="M556.792,649.985a1.172,1.172,0,0,0,.029-1.653h0a1.172,1.172,0,0,0-1.653-.029l-1.574,1.52,1.624,1.682Z" transform="translate(-503.06 -583.533)" fill="#3f3d56"/>
    <path id="Path_201" data-name="Path 201" d="M541.413,665.011l1.531-1.478-1.624-1.682-1.531,1.478a1.172,1.172,0,0,0-.029,1.653h0a1.172,1.172,0,0,0,1.653.029Z" transform="translate(-490.699 -595.644)" fill="#075cc9"/>
    <path id="Path_202" data-name="Path 202" d="M540.665,665.334a1.162,1.162,0,0,1-.736-.35h0a1.172,1.172,0,0,1,.029-1.653l1.444-1.4-.083-.086-1.531,1.478a1.172,1.172,0,0,0-.029,1.653h0A1.166,1.166,0,0,0,540.665,665.334Z" transform="translate(-490.699 -595.644)" opacity="0.2"/>
    <path id="Path_203" data-name="Path 203" d="M650.792,614.985a1.172,1.172,0,0,0,.029-1.653h0a1.172,1.172,0,0,0-1.653-.029l-1.574,1.52,1.624,1.681Z" transform="translate(-585.113 -552.982)" fill="#3f3d56"/>
    <path id="Path_204" data-name="Path 204" d="M635.413,630.011l1.531-1.478-1.624-1.681-1.53,1.478a1.172,1.172,0,0,0-.029,1.653h0A1.172,1.172,0,0,0,635.413,630.011Z" transform="translate(-572.752 -565.093)" fill="#075cc9"/>
    <path id="Path_205" data-name="Path 205" d="M634.666,630.334a1.163,1.163,0,0,1-.736-.35h0a1.172,1.172,0,0,1,.029-1.653l1.444-1.395-.083-.086-1.531,1.478a1.172,1.172,0,0,0-.029,1.653h0A1.166,1.166,0,0,0,634.666,630.334Z" transform="translate(-572.752 -565.092)" opacity="0.2"/>
    <path id="Path_206" data-name="Path 206" d="M638,698.8a1.172,1.172,0,0,0-1.652-.049h0a1.172,1.172,0,0,0-.049,1.652l1.5,1.592,1.7-1.6Z" transform="translate(-574.978 -627.576)" fill="#3f3d56"/>
    <path id="Path_207" data-name="Path 207" d="M652.8,714.7l-1.46-1.548-1.7,1.6,1.46,1.548a1.172,1.172,0,0,0,1.652.049h0a1.172,1.172,0,0,0,.049-1.652Z" transform="translate(-586.897 -640.422)" fill="#075cc9"/>
    <path id="Path_208" data-name="Path 208" d="M653.113,725.9a1.162,1.162,0,0,1-.359.732h0a1.172,1.172,0,0,1-1.652-.049l-1.378-1.461-.087.082,1.46,1.548a1.172,1.172,0,0,0,1.652.049h0A1.166,1.166,0,0,0,653.113,725.9Z" transform="translate(-586.897 -650.871)" opacity="0.2"/>
    <path id="Path_209" data-name="Path 209" d="M573,697.8a1.172,1.172,0,0,0-1.652-.049h0a1.172,1.172,0,0,0-.049,1.652l1.5,1.592,1.7-1.6Z" transform="translate(-518.239 -626.703)" fill="#3f3d56"/>
    <path id="Path_210" data-name="Path 210" d="M587.8,713.7l-1.46-1.548-1.7,1.6,1.46,1.548a1.172,1.172,0,0,0,1.652.049h0A1.172,1.172,0,0,0,587.8,713.7Z" transform="translate(-530.158 -639.549)" fill="#075cc9"/>
    <path id="Path_211" data-name="Path 211" d="M588.113,724.9a1.162,1.162,0,0,1-.359.732h0a1.172,1.172,0,0,1-1.652-.049l-1.378-1.461-.087.082,1.46,1.549a1.172,1.172,0,0,0,1.652.049h0A1.166,1.166,0,0,0,588.113,724.9Z" transform="translate(-530.158 -649.998)" opacity="0.2"/>
    <path id="Path_212" data-name="Path 212" d="M582,655.739a1.686,1.686,0,0,1-1.349,1.652,1.7,1.7,0,0,1-.674,0,1.686,1.686,0,0,1,0-3.3,1.7,1.7,0,0,1,.674,0A1.686,1.686,0,0,1,582,655.739Z" transform="translate(-524.915 -588.837)" fill="#075cc9"/>
    <path id="Path_213" data-name="Path 213" d="M589.916,654.086v3.3a1.7,1.7,0,0,1-.674,0v-3.3A1.7,1.7,0,0,1,589.916,654.086Z" transform="translate(-534.177 -588.837)" opacity="0.2"/>
    <path id="Path_214" data-name="Path 214" d="M588,602.739a1.686,1.686,0,1,1-2.023-1.652,1.7,1.7,0,0,1,.674,0A1.686,1.686,0,0,1,588,602.739Z" transform="translate(-530.153 -542.573)" fill="#075cc9"/>
    <path id="Path_215" data-name="Path 215" d="M595.916,601.086v3.3a1.7,1.7,0,0,1-.674,0v-3.3A1.7,1.7,0,0,1,595.916,601.086Z" transform="translate(-539.414 -542.573)" opacity="0.2"/>
    <path id="Path_216" data-name="Path 216" d="M588,678.739a1.686,1.686,0,0,1-1.349,1.652,1.7,1.7,0,0,1-.674,0,1.686,1.686,0,0,1,0-3.3,1.7,1.7,0,0,1,.674,0A1.686,1.686,0,0,1,588,678.739Z" transform="translate(-530.153 -608.914)" fill="#075cc9"/>
    <path id="Path_217" data-name="Path 217" d="M595.916,677.086v3.3a1.7,1.7,0,0,1-.674,0v-3.3A1.7,1.7,0,0,1,595.916,677.086Z" transform="translate(-539.414 -608.914)" opacity="0.2"/>
    <path id="Path_218" data-name="Path 218" d="M621,715.739a1.686,1.686,0,1,1-1.349-1.652A1.686,1.686,0,0,1,621,715.739Z" transform="translate(-558.958 -641.211)" fill="#075cc9"/>
    <path id="Path_219" data-name="Path 219" d="M628.916,714.086v3.3a1.7,1.7,0,0,1-.674,0v-3.3a1.7,1.7,0,0,1,.674,0Z" transform="translate(-568.22 -641.211)" opacity="0.2"/>
    <path id="Path_220" data-name="Path 220" d="M653.7,656a1.686,1.686,0,1,1-2.593.31,1.7,1.7,0,0,1,.468-.485A1.686,1.686,0,0,1,653.7,656Z" transform="translate(-587.947 -590.122)" fill="#075cc9"/>
    <path id="Path_221" data-name="Path 221" d="M653.374,657.86l2.379,2.293a1.7,1.7,0,0,1-.468.485l-2.379-2.293A1.7,1.7,0,0,1,653.374,657.86Z" transform="translate(-589.75 -592.16)" opacity="0.2"/>
    <path id="Path_222" data-name="Path 222" d="M657.7,685a1.686,1.686,0,1,1-2.125-.175A1.686,1.686,0,0,1,657.7,685Z" transform="translate(-591.439 -615.436)" fill="#075cc9"/>
    <path id="Path_223" data-name="Path 223" d="M657.374,686.86l2.379,2.293a1.7,1.7,0,0,1-.468.486l-2.379-2.293A1.7,1.7,0,0,1,657.374,686.86Z" transform="translate(-593.242 -617.474)" opacity="0.2"/>
    <path id="Path_224" data-name="Path 224" d="M538.7,692a1.686,1.686,0,0,1,.253,2.117,1.7,1.7,0,0,1-.468.486,1.686,1.686,0,1,1,.214-2.6Z" transform="translate(-487.564 -621.546)" fill="#075cc9"/>
    <path id="Path_225" data-name="Path 225" d="M538.374,693.86l2.379,2.293a1.7,1.7,0,0,1-.468.486l-2.379-2.293A1.7,1.7,0,0,1,538.374,693.86Z" transform="translate(-489.366 -623.585)" opacity="0.2"/>
    <rect id="Rectangle_50" data-name="Rectangle 50" width="0.635" height="4.703" transform="translate(45.057 40.177)" opacity="0.2"/>
    <rect id="Rectangle_51" data-name="Rectangle 51" width="0.635" height="4.703" transform="translate(48.743 40.177)" opacity="0.2"/>
    <rect id="Rectangle_52" data-name="Rectangle 52" width="0.635" height="4.703" transform="translate(52.428 40.177)" opacity="0.2"/>
    <rect id="Rectangle_53" data-name="Rectangle 53" width="0.635" height="4.703" transform="translate(56.114 40.177)" opacity="0.2"/>
    <rect id="Rectangle_54" data-name="Rectangle 54" width="0.635" height="4.703" transform="translate(59.8 40.177)" opacity="0.2"/>
    <rect id="Rectangle_55" data-name="Rectangle 55" width="0.635" height="4.703" transform="translate(63.486 40.177)" opacity="0.2"/>
    <rect id="Rectangle_56" data-name="Rectangle 56" width="0.635" height="4.703" transform="translate(67.172 40.177)" opacity="0.2"/>
  </g>
</svg>
