<svg xmlns="http://www.w3.org/2000/svg" width="31" height="31" viewBox="0 0 31 31">
  <g id="Group_5" data-name="Group 5" transform="translate(-34 -580)">
    <circle id="Ellipse_10" data-name="Ellipse 10" cx="15.5" cy="15.5" r="15.5" transform="translate(34 580)" fill="#00aef4"/>
    <g id="flask" transform="translate(43.701 587.365)">
      <path id="Path_143" data-name="Path 143" d="M11.482,14.1,8.042,5.71a3.826,3.826,0,0,1-.288-1.459V2.035A.888.888,0,0,1,8.016,1.4,1.083,1.083,0,0,0,8.335.632V.318A.318.318,0,0,0,8.018,0H3.581a.318.318,0,0,0-.318.318V.632a1.083,1.083,0,0,0,.319.771.888.888,0,0,1,.262.632V4.251A3.824,3.824,0,0,1,3.557,5.71l-.945,2.3v0L.117,14.1a1.576,1.576,0,0,0,1.458,2.174h8.45A1.576,1.576,0,0,0,11.482,14.1ZM4.145,5.951a4.456,4.456,0,0,0,.335-1.7V2.035A1.519,1.519,0,0,0,4.032.953.452.452,0,0,1,3.9.636H7.7a.451.451,0,0,1-.133.317,1.519,1.519,0,0,0-.448,1.081V4.251a4.459,4.459,0,0,0,.335,1.7l.767,1.87H3.377Zm6.66,9.266a.926.926,0,0,1-.781.417H1.574a.942.942,0,0,1-.931-1.076h.524a.318.318,0,1,0,0-.635H.875l.365-.89h.536a.318.318,0,0,0,0-.635H1.5l.365-.89h.551a.318.318,0,0,0,0-.635h-.29l.365-.89h.566a.318.318,0,1,0,0-.635H2.752l.365-.89H8.482l2.412,5.88a.926.926,0,0,1-.089.88Zm0,0" transform="translate(0 0)" fill="#fff"/>
      <path id="Path_144" data-name="Path 144" d="M293.385,438.2a.318.318,0,0,0-.588.241l0,0a.318.318,0,1,0,.588-.241Zm0,0" transform="translate(-283.472 -424.082)" fill="#fff"/>
      <path id="Path_145" data-name="Path 145" d="M244.582,319.235l-1.138-2.774a.318.318,0,1,0-.588.241l1.138,2.774a.318.318,0,1,0,.588-.241Zm0,0" transform="translate(-235.118 -306.215)" fill="#fff"/>
    </g>
  </g>
</svg>
