<svg xmlns="http://www.w3.org/2000/svg" width="12.067" height="12.856" viewBox="0 0 12.067 12.856">
  <path id="Path_228" data-name="Path 228" d="M27.5,8.085a2.007,2.007,0,0,0-2.744-.735l-1.02.589V5.758A1.264,1.264,0,0,0,23.484,5L22.229,3.331V2.618a.754.754,0,0,0,.5-.71V.753A.754.754,0,0,0,21.978,0H17.459a.754.754,0,0,0-.753.753V1.908a.754.754,0,0,0,.5.71v.713L15.952,5a1.264,1.264,0,0,0-.251.753v4.863a1.257,1.257,0,0,0,1.255,1.255h4.035a2.007,2.007,0,0,0,2.728.71l3.044-1.758A2.01,2.01,0,0,0,27.5,8.085ZM17.207.753A.251.251,0,0,1,17.459.5h4.519a.251.251,0,0,1,.251.251V1.908a.251.251,0,0,1-.251.251H17.459a.251.251,0,0,1-.251-.251V.753Zm-.854,4.553,1.306-1.741a.251.251,0,0,0,.05-.151V2.661h4.017v.5h-2.26a.251.251,0,0,0,0,.5h2.385l1.23,1.64a.76.76,0,0,1,.145.368h-7.02A.759.759,0,0,1,16.354,5.306Zm.6,6.068a.754.754,0,0,1-.753-.753v-.254h4.562a2.012,2.012,0,0,0,.012,1.007H16.956Zm4.005-1.506H16.2V6.177h7.03V8.228l-1.522.879A1.994,1.994,0,0,0,20.962,9.867Zm2.507,2.284a1.506,1.506,0,1,1-1.506-2.609l1.363-.787,1.506,2.609Zm3.044-1.758-1.246.72L23.76,8.5l1.246-.72a1.506,1.506,0,1,1,1.506,2.609Z" transform="translate(-15.701)" fill="#fafafa"/>
</svg>
